<mxfile host="Electron" modified="2024-05-20T11:38:43.151Z" agent="Mozilla/5.0 (Windows NT 10.0; Win64; x64) AppleWebKit/537.36 (KHTML, like Gecko) draw.io/24.4.0 Chrome/120.0.6099.109 Electron/28.1.0 Safari/537.36" etag="WTU6gsJ4VB6sBZkcnlrb" version="24.4.0" type="device" pages="3">
  <diagram id="eOH6r4bebiKr7y4yvsSV" name="Inicial">
    <mxGraphModel dx="794" dy="511" grid="1" gridSize="10" guides="1" tooltips="1" connect="1" arrows="1" fold="1" page="1" pageScale="1" pageWidth="1654" pageHeight="1169" math="0" shadow="0">
      <root>
        <mxCell id="0" />
        <mxCell id="1" parent="0" />
        <mxCell id="ep3NQdGm5HHKTxAk3fZj-70" value="&lt;p style=&quot;margin: 0px ; margin-top: 4px ; margin-left: 10px ; text-align: left&quot;&gt;&lt;b&gt;bdd&lt;/b&gt;   GestionPersonajes&lt;/p&gt;" style="html=1;strokeWidth=1;shape=mxgraph.sysml.package;labelX=173.71;align=left;spacingLeft=10;overflow=fill;recursiveResize=0;fillColor=none;fontSize=14;" parent="1" vertex="1">
          <mxGeometry x="130" y="600" width="760" height="550" as="geometry" />
        </mxCell>
        <mxCell id="ep3NQdGm5HHKTxAk3fZj-1" value="" style="rounded=1;whiteSpace=wrap;html=1;fillColor=#d5e8d4;strokeColor=#82b366;strokeWidth=3;" parent="1" vertex="1">
          <mxGeometry x="220" y="130" width="190" height="150" as="geometry" />
        </mxCell>
        <mxCell id="ep3NQdGm5HHKTxAk3fZj-2" value="" style="ellipse;whiteSpace=wrap;html=1;aspect=fixed;fillColor=#fff2cc;strokeColor=#d6b656;" parent="1" vertex="1">
          <mxGeometry x="240" y="240" width="30" height="30" as="geometry" />
        </mxCell>
        <mxCell id="ep3NQdGm5HHKTxAk3fZj-3" value="" style="rounded=1;whiteSpace=wrap;html=1;fillColor=#d5e8d4;strokeColor=#82b366;strokeWidth=3;" parent="1" vertex="1">
          <mxGeometry x="610" y="60" width="190" height="150" as="geometry" />
        </mxCell>
        <mxCell id="ep3NQdGm5HHKTxAk3fZj-5" style="edgeStyle=orthogonalEdgeStyle;rounded=0;orthogonalLoop=1;jettySize=auto;html=1;strokeWidth=3;endArrow=open;endFill=0;fillColor=#d5e8d4;strokeColor=#82b366;" parent="1" source="ep3NQdGm5HHKTxAk3fZj-4" target="ep3NQdGm5HHKTxAk3fZj-3" edge="1">
          <mxGeometry relative="1" as="geometry" />
        </mxCell>
        <mxCell id="ep3NQdGm5HHKTxAk3fZj-4" value="" style="ellipse;whiteSpace=wrap;html=1;aspect=fixed;fillColor=#60a917;strokeColor=#2D7600;fontColor=#ffffff;" parent="1" vertex="1">
          <mxGeometry x="350" y="150" width="20" height="20" as="geometry" />
        </mxCell>
        <mxCell id="ep3NQdGm5HHKTxAk3fZj-8" value="" style="rounded=1;whiteSpace=wrap;html=1;fillColor=#d5e8d4;strokeColor=#82b366;strokeWidth=3;" parent="1" vertex="1">
          <mxGeometry x="810" y="250" width="190" height="150" as="geometry" />
        </mxCell>
        <mxCell id="ep3NQdGm5HHKTxAk3fZj-9" style="edgeStyle=orthogonalEdgeStyle;rounded=0;orthogonalLoop=1;jettySize=auto;html=1;strokeWidth=3;endArrow=open;endFill=0;fillColor=#d5e8d4;strokeColor=#82b366;" parent="1" source="ep3NQdGm5HHKTxAk3fZj-10" target="ep3NQdGm5HHKTxAk3fZj-8" edge="1">
          <mxGeometry relative="1" as="geometry" />
        </mxCell>
        <mxCell id="ep3NQdGm5HHKTxAk3fZj-10" value="" style="ellipse;whiteSpace=wrap;html=1;aspect=fixed;fillColor=#60a917;strokeColor=#2D7600;fontColor=#ffffff;" parent="1" vertex="1">
          <mxGeometry x="740" y="80" width="20" height="20" as="geometry" />
        </mxCell>
        <mxCell id="ep3NQdGm5HHKTxAk3fZj-11" value="" style="rounded=1;whiteSpace=wrap;html=1;fillColor=#d5e8d4;strokeColor=#82b366;strokeWidth=3;" parent="1" vertex="1">
          <mxGeometry x="510" y="330" width="190" height="150" as="geometry" />
        </mxCell>
        <mxCell id="ep3NQdGm5HHKTxAk3fZj-12" style="edgeStyle=orthogonalEdgeStyle;rounded=0;orthogonalLoop=1;jettySize=auto;html=1;strokeWidth=3;endArrow=open;endFill=0;fillColor=#d5e8d4;strokeColor=#82b366;entryX=0;entryY=0.5;entryDx=0;entryDy=0;" parent="1" source="ep3NQdGm5HHKTxAk3fZj-13" target="ep3NQdGm5HHKTxAk3fZj-11" edge="1">
          <mxGeometry relative="1" as="geometry" />
        </mxCell>
        <mxCell id="ep3NQdGm5HHKTxAk3fZj-13" value="" style="ellipse;whiteSpace=wrap;html=1;aspect=fixed;fillColor=#60a917;strokeColor=#2D7600;fontColor=#ffffff;" parent="1" vertex="1">
          <mxGeometry x="350" y="250" width="20" height="20" as="geometry" />
        </mxCell>
        <mxCell id="ep3NQdGm5HHKTxAk3fZj-17" style="edgeStyle=orthogonalEdgeStyle;rounded=0;orthogonalLoop=1;jettySize=auto;html=1;strokeWidth=3;endArrow=open;endFill=0;fillColor=#d5e8d4;strokeColor=#82b366;" parent="1" source="ep3NQdGm5HHKTxAk3fZj-18" target="ep3NQdGm5HHKTxAk3fZj-11" edge="1">
          <mxGeometry relative="1" as="geometry">
            <mxPoint x="520" y="415" as="targetPoint" />
          </mxGeometry>
        </mxCell>
        <mxCell id="ep3NQdGm5HHKTxAk3fZj-18" value="" style="ellipse;whiteSpace=wrap;html=1;aspect=fixed;fillColor=#60a917;strokeColor=#2D7600;fontColor=#ffffff;" parent="1" vertex="1">
          <mxGeometry x="840" y="350" width="20" height="20" as="geometry" />
        </mxCell>
        <mxCell id="ep3NQdGm5HHKTxAk3fZj-20" value="" style="ellipse;whiteSpace=wrap;html=1;aspect=fixed;fillColor=#fff2cc;strokeColor=#d6b656;" parent="1" vertex="1">
          <mxGeometry x="240" y="140" width="30" height="30" as="geometry" />
        </mxCell>
        <mxCell id="ep3NQdGm5HHKTxAk3fZj-21" value="" style="ellipse;whiteSpace=wrap;html=1;aspect=fixed;fillColor=#fff2cc;strokeColor=#d6b656;" parent="1" vertex="1">
          <mxGeometry x="670" y="100" width="30" height="30" as="geometry" />
        </mxCell>
        <mxCell id="ep3NQdGm5HHKTxAk3fZj-22" value="" style="ellipse;whiteSpace=wrap;html=1;aspect=fixed;fillColor=#fff2cc;strokeColor=#d6b656;" parent="1" vertex="1">
          <mxGeometry x="660" y="160" width="30" height="30" as="geometry" />
        </mxCell>
        <mxCell id="ep3NQdGm5HHKTxAk3fZj-23" value="" style="ellipse;whiteSpace=wrap;html=1;aspect=fixed;fillColor=#fff2cc;strokeColor=#d6b656;" parent="1" vertex="1">
          <mxGeometry x="940" y="270" width="30" height="30" as="geometry" />
        </mxCell>
        <mxCell id="ep3NQdGm5HHKTxAk3fZj-24" value="" style="ellipse;whiteSpace=wrap;html=1;aspect=fixed;fillColor=#60a917;strokeColor=#2D7600;fontColor=#ffffff;" parent="1" vertex="1">
          <mxGeometry x="620" y="160" width="20" height="20" as="geometry" />
        </mxCell>
        <mxCell id="ep3NQdGm5HHKTxAk3fZj-26" style="edgeStyle=orthogonalEdgeStyle;rounded=0;orthogonalLoop=1;jettySize=auto;html=1;strokeWidth=3;endArrow=open;endFill=0;fillColor=#d5e8d4;strokeColor=#82b366;exitX=0;exitY=0.5;exitDx=0;exitDy=0;entryX=1;entryY=0.5;entryDx=0;entryDy=0;" parent="1" source="ep3NQdGm5HHKTxAk3fZj-24" target="ep3NQdGm5HHKTxAk3fZj-1" edge="1">
          <mxGeometry relative="1" as="geometry">
            <mxPoint x="770" y="100" as="sourcePoint" />
            <mxPoint x="915" y="260" as="targetPoint" />
          </mxGeometry>
        </mxCell>
        <mxCell id="ep3NQdGm5HHKTxAk3fZj-27" value="puerta de doble sentido" style="rounded=1;whiteSpace=wrap;html=1;strokeWidth=3;fillColor=none;verticalAlign=top;fontSize=14;" parent="1" vertex="1">
          <mxGeometry x="320" y="80" width="330" height="140" as="geometry" />
        </mxCell>
        <mxCell id="ep3NQdGm5HHKTxAk3fZj-28" value="puerta de un solo sentido&lt;br&gt;" style="rounded=1;whiteSpace=wrap;html=1;strokeWidth=3;fillColor=none;verticalAlign=bottom;fontSize=14;" parent="1" vertex="1">
          <mxGeometry x="320" y="230" width="220" height="300" as="geometry" />
        </mxCell>
        <mxCell id="ep3NQdGm5HHKTxAk3fZj-29" value="objeto pasivo&lt;br&gt;en la&lt;br&gt;estancia" style="rounded=1;whiteSpace=wrap;html=1;strokeWidth=3;fillColor=none;verticalAlign=top;fontSize=14;" parent="1" vertex="1">
          <mxGeometry x="190" y="50" width="110" height="140" as="geometry" />
        </mxCell>
        <mxCell id="ep3NQdGm5HHKTxAk3fZj-30" value="estancia&lt;br&gt;" style="rounded=1;whiteSpace=wrap;html=1;strokeWidth=3;fillColor=none;verticalAlign=bottom;fontSize=14;" parent="1" vertex="1">
          <mxGeometry x="790" y="215" width="230" height="235" as="geometry" />
        </mxCell>
        <mxCell id="ep3NQdGm5HHKTxAk3fZj-35" value="" style="group" parent="1" vertex="1" connectable="0">
          <mxGeometry x="560" y="340" width="60" height="50" as="geometry" />
        </mxCell>
        <mxCell id="ep3NQdGm5HHKTxAk3fZj-33" value="" style="group" parent="ep3NQdGm5HHKTxAk3fZj-35" vertex="1" connectable="0">
          <mxGeometry width="60" height="50" as="geometry" />
        </mxCell>
        <mxCell id="ep3NQdGm5HHKTxAk3fZj-31" value="" style="shape=hexagon;perimeter=hexagonPerimeter2;whiteSpace=wrap;html=1;strokeWidth=3;fillColor=#f8cecc;fontSize=14;strokeColor=#b85450;" parent="ep3NQdGm5HHKTxAk3fZj-33" vertex="1">
          <mxGeometry width="60" height="50" as="geometry" />
        </mxCell>
        <mxCell id="ep3NQdGm5HHKTxAk3fZj-32" value="Mago" style="shape=umlActor;verticalLabelPosition=bottom;labelBackgroundColor=#ffffff;verticalAlign=top;html=1;outlineConnect=0;strokeWidth=3;fillColor=#f8cecc;fontSize=14;strokeColor=#b85450;" parent="ep3NQdGm5HHKTxAk3fZj-33" vertex="1">
          <mxGeometry x="20" y="5" width="20" height="40" as="geometry" />
        </mxCell>
        <mxCell id="ep3NQdGm5HHKTxAk3fZj-36" value="" style="group" parent="1" vertex="1" connectable="0">
          <mxGeometry x="710" y="130" width="60" height="50" as="geometry" />
        </mxCell>
        <mxCell id="ep3NQdGm5HHKTxAk3fZj-37" value="" style="group" parent="ep3NQdGm5HHKTxAk3fZj-36" vertex="1" connectable="0">
          <mxGeometry width="60" height="50" as="geometry" />
        </mxCell>
        <mxCell id="ep3NQdGm5HHKTxAk3fZj-38" value="" style="shape=hexagon;perimeter=hexagonPerimeter2;whiteSpace=wrap;html=1;strokeWidth=3;fillColor=#f8cecc;fontSize=14;strokeColor=#b85450;" parent="ep3NQdGm5HHKTxAk3fZj-37" vertex="1">
          <mxGeometry width="60" height="50" as="geometry" />
        </mxCell>
        <mxCell id="ep3NQdGm5HHKTxAk3fZj-39" value="Visitante" style="shape=umlActor;verticalLabelPosition=bottom;labelBackgroundColor=#ffffff;verticalAlign=top;html=1;outlineConnect=0;strokeWidth=3;fillColor=#f8cecc;fontSize=14;strokeColor=#b85450;" parent="ep3NQdGm5HHKTxAk3fZj-37" vertex="1">
          <mxGeometry x="20" y="5" width="20" height="40" as="geometry" />
        </mxCell>
        <mxCell id="ep3NQdGm5HHKTxAk3fZj-42" value="" style="ellipse;whiteSpace=wrap;html=1;aspect=fixed;strokeWidth=3;fillColor=#e1d5e7;fontSize=14;strokeColor=#9673a6;" parent="1" vertex="1">
          <mxGeometry x="620" y="430" width="40" height="40" as="geometry" />
        </mxCell>
        <mxCell id="ep3NQdGm5HHKTxAk3fZj-43" value="objeto activo&lt;br&gt;de la estancia" style="rounded=1;whiteSpace=wrap;html=1;strokeWidth=3;fillColor=none;verticalAlign=bottom;fontSize=14;" parent="1" vertex="1">
          <mxGeometry x="595" y="420" width="125" height="120" as="geometry" />
        </mxCell>
        <mxCell id="ep3NQdGm5HHKTxAk3fZj-45" value="" style="group" parent="1" vertex="1" connectable="0">
          <mxGeometry x="285" y="850" width="60" height="50" as="geometry" />
        </mxCell>
        <mxCell id="ep3NQdGm5HHKTxAk3fZj-46" value="" style="group" parent="ep3NQdGm5HHKTxAk3fZj-45" vertex="1" connectable="0">
          <mxGeometry width="60" height="50" as="geometry" />
        </mxCell>
        <mxCell id="ep3NQdGm5HHKTxAk3fZj-47" value="" style="shape=hexagon;perimeter=hexagonPerimeter2;whiteSpace=wrap;html=1;strokeWidth=3;fillColor=#f8cecc;fontSize=14;strokeColor=#b85450;" parent="ep3NQdGm5HHKTxAk3fZj-46" vertex="1">
          <mxGeometry width="60" height="50" as="geometry" />
        </mxCell>
        <mxCell id="ep3NQdGm5HHKTxAk3fZj-48" value="Mago" style="shape=umlActor;verticalLabelPosition=bottom;labelBackgroundColor=#ffffff;verticalAlign=top;html=1;outlineConnect=0;strokeWidth=3;fillColor=#f8cecc;fontSize=14;strokeColor=#b85450;" parent="ep3NQdGm5HHKTxAk3fZj-46" vertex="1">
          <mxGeometry x="20" y="5" width="20" height="40" as="geometry" />
        </mxCell>
        <mxCell id="ep3NQdGm5HHKTxAk3fZj-49" value="" style="group" parent="1" vertex="1" connectable="0">
          <mxGeometry x="415" y="850" width="60" height="50" as="geometry" />
        </mxCell>
        <mxCell id="ep3NQdGm5HHKTxAk3fZj-50" value="" style="group" parent="ep3NQdGm5HHKTxAk3fZj-49" vertex="1" connectable="0">
          <mxGeometry width="60" height="50" as="geometry" />
        </mxCell>
        <mxCell id="ep3NQdGm5HHKTxAk3fZj-51" value="" style="shape=hexagon;perimeter=hexagonPerimeter2;whiteSpace=wrap;html=1;strokeWidth=3;fillColor=#f8cecc;fontSize=14;strokeColor=#b85450;" parent="ep3NQdGm5HHKTxAk3fZj-50" vertex="1">
          <mxGeometry width="60" height="50" as="geometry" />
        </mxCell>
        <mxCell id="ep3NQdGm5HHKTxAk3fZj-52" value="Visitante" style="shape=umlActor;verticalLabelPosition=bottom;labelBackgroundColor=#ffffff;verticalAlign=top;html=1;outlineConnect=0;strokeWidth=3;fillColor=#f8cecc;fontSize=14;strokeColor=#b85450;" parent="ep3NQdGm5HHKTxAk3fZj-50" vertex="1">
          <mxGeometry x="20" y="5" width="20" height="40" as="geometry" />
        </mxCell>
        <mxCell id="ep3NQdGm5HHKTxAk3fZj-55" value="" style="verticalAlign=bottom;html=1;endArrow=open;endSize=12;edgeStyle=orthogonalEdgeStyle;startFill=0;startSize=12;startArrow=diamondThin;strokeWidth=3;fontSize=14;exitX=0.5;exitY=1;exitDx=0;exitDy=0;entryX=0.5;entryY=0;entryDx=0;entryDy=0;" parent="1" source="ep3NQdGm5HHKTxAk3fZj-65" target="ep3NQdGm5HHKTxAk3fZj-51" edge="1">
          <mxGeometry relative="1" as="geometry">
            <mxPoint x="405" y="750" as="sourcePoint" />
            <mxPoint x="695" y="690" as="targetPoint" />
          </mxGeometry>
        </mxCell>
        <mxCell id="ep3NQdGm5HHKTxAk3fZj-56" value="" style="resizable=0;html=1;align=left;verticalAlign=top;labelBackgroundColor=none;fontSize=10" parent="ep3NQdGm5HHKTxAk3fZj-55" connectable="0" vertex="1">
          <mxGeometry x="-0.9" relative="1" as="geometry" />
        </mxCell>
        <mxCell id="ep3NQdGm5HHKTxAk3fZj-57" value="" style="resizable=0;html=1;align=right;verticalAlign=top;labelBackgroundColor=none;fontSize=10" parent="ep3NQdGm5HHKTxAk3fZj-55" connectable="0" vertex="1">
          <mxGeometry x="0.9" relative="1" as="geometry" />
        </mxCell>
        <mxCell id="ep3NQdGm5HHKTxAk3fZj-58" value="" style="resizable=0;html=1;align=right;verticalAlign=bottom;labelBackgroundColor=none;fontSize=10" parent="ep3NQdGm5HHKTxAk3fZj-55" connectable="0" vertex="1">
          <mxGeometry x="0.9" relative="1" as="geometry" />
        </mxCell>
        <mxCell id="ep3NQdGm5HHKTxAk3fZj-59" value="" style="verticalAlign=bottom;html=1;endArrow=open;endSize=12;edgeStyle=orthogonalEdgeStyle;startFill=0;startSize=12;startArrow=diamondThin;strokeWidth=3;fontSize=14;exitX=0.5;exitY=1;exitDx=0;exitDy=0;entryX=0.5;entryY=0;entryDx=0;entryDy=0;" parent="1" source="ep3NQdGm5HHKTxAk3fZj-65" target="ep3NQdGm5HHKTxAk3fZj-47" edge="1">
          <mxGeometry relative="1" as="geometry">
            <mxPoint x="345" y="750" as="sourcePoint" />
            <mxPoint x="455" y="860" as="targetPoint" />
          </mxGeometry>
        </mxCell>
        <mxCell id="ep3NQdGm5HHKTxAk3fZj-60" value="" style="resizable=0;html=1;align=left;verticalAlign=top;labelBackgroundColor=none;fontSize=10" parent="ep3NQdGm5HHKTxAk3fZj-59" connectable="0" vertex="1">
          <mxGeometry x="-0.9" relative="1" as="geometry" />
        </mxCell>
        <mxCell id="ep3NQdGm5HHKTxAk3fZj-61" value="" style="resizable=0;html=1;align=right;verticalAlign=top;labelBackgroundColor=none;fontSize=10" parent="ep3NQdGm5HHKTxAk3fZj-59" connectable="0" vertex="1">
          <mxGeometry x="0.9" relative="1" as="geometry" />
        </mxCell>
        <mxCell id="ep3NQdGm5HHKTxAk3fZj-62" value="" style="resizable=0;html=1;align=right;verticalAlign=bottom;labelBackgroundColor=none;fontSize=10" parent="ep3NQdGm5HHKTxAk3fZj-59" connectable="0" vertex="1">
          <mxGeometry x="0.9" relative="1" as="geometry" />
        </mxCell>
        <mxCell id="ep3NQdGm5HHKTxAk3fZj-64" style="edgeStyle=orthogonalEdgeStyle;rounded=0;orthogonalLoop=1;jettySize=auto;html=1;endArrow=open;endFill=0;strokeWidth=3;fontSize=14;entryX=1;entryY=0.5;entryDx=0;entryDy=0;" parent="1" source="ep3NQdGm5HHKTxAk3fZj-63" target="ep3NQdGm5HHKTxAk3fZj-65" edge="1">
          <mxGeometry relative="1" as="geometry">
            <mxPoint x="435" y="720" as="targetPoint" />
          </mxGeometry>
        </mxCell>
        <mxCell id="ep3NQdGm5HHKTxAk3fZj-63" value="&lt;p style=&quot;margin: 0px ; margin-top: 4px ; text-align: center&quot;&gt;&amp;lt;&amp;lt;cliente&amp;gt;&amp;gt;&lt;br&gt;&lt;b&gt;GestorPersonajes&lt;/b&gt;&lt;/p&gt;&lt;hr&gt;&lt;p style=&quot;margin: 0px ; margin-left: 8px ; text-align: left&quot;&gt;&lt;br&gt;&lt;/p&gt;" style="shape=rect;html=1;overflow=fill;whiteSpace=wrap;strokeWidth=3;fillColor=none;fontSize=14;" parent="1" vertex="1">
          <mxGeometry x="655" y="660" width="200" height="80" as="geometry" />
        </mxCell>
        <mxCell id="ep3NQdGm5HHKTxAk3fZj-65" value="&lt;p style=&quot;margin: 0px ; margin-top: 4px ; text-align: center&quot;&gt;&amp;lt;&amp;lt;servidor&amp;gt;&amp;gt;&lt;br&gt;&lt;b&gt;ContenedorPersonajes&lt;/b&gt;&lt;/p&gt;&lt;hr&gt;&lt;p style=&quot;margin: 0px ; margin-left: 8px ; text-align: left&quot;&gt;+creaPersonaje(tipoPersonaje) : Personaje&lt;br&gt;+eliminaPersonaje( :Personaje)&lt;/p&gt;" style="shape=rect;html=1;overflow=fill;whiteSpace=wrap;strokeWidth=3;fillColor=none;fontSize=14;" parent="1" vertex="1">
          <mxGeometry x="230" y="650" width="290" height="100" as="geometry" />
        </mxCell>
        <mxCell id="ep3NQdGm5HHKTxAk3fZj-66" value="&lt;p style=&quot;margin: 0px ; margin-top: 4px ; text-align: center&quot;&gt;&amp;lt;&amp;lt;ObjetoRemoto&amp;gt;&amp;gt;&lt;br&gt;&lt;b&gt;Personaje&lt;/b&gt;&lt;/p&gt;&lt;hr&gt;&lt;p style=&quot;margin: 0px ; margin-left: 8px ; text-align: left&quot;&gt;+info() : String&lt;/p&gt;&lt;p style=&quot;margin: 0px ; margin-left: 8px ; text-align: left&quot;&gt;+status() : String&lt;/p&gt;&lt;p style=&quot;margin: 0px ; margin-left: 8px ; text-align: left&quot;&gt;+acciones() : MapaAcciones&lt;/p&gt;&lt;p style=&quot;margin: 0px ; margin-left: 8px ; text-align: left&quot;&gt;+actua(hability : String, value : String)&lt;/p&gt;&lt;p style=&quot;margin: 0px ; margin-left: 8px ; text-align: left&quot;&gt;+commit() : String&lt;/p&gt;" style="shape=rect;html=1;overflow=fill;whiteSpace=wrap;strokeWidth=3;fillColor=none;fontSize=14;" parent="1" vertex="1">
          <mxGeometry x="245" y="990" width="260" height="140" as="geometry" />
        </mxCell>
        <mxCell id="ep3NQdGm5HHKTxAk3fZj-67" style="edgeStyle=orthogonalEdgeStyle;rounded=0;orthogonalLoop=1;jettySize=auto;html=1;endArrow=block;endFill=0;strokeWidth=3;fontSize=14;entryX=0.5;entryY=0;entryDx=0;entryDy=0;" parent="1" target="ep3NQdGm5HHKTxAk3fZj-66" edge="1">
          <mxGeometry relative="1" as="geometry">
            <mxPoint x="445" y="920" as="sourcePoint" />
            <Array as="points" />
          </mxGeometry>
        </mxCell>
        <mxCell id="ep3NQdGm5HHKTxAk3fZj-68" style="edgeStyle=orthogonalEdgeStyle;rounded=0;orthogonalLoop=1;jettySize=auto;html=1;endArrow=block;endFill=0;strokeWidth=3;fontSize=14;entryX=0.5;entryY=0;entryDx=0;entryDy=0;" parent="1" target="ep3NQdGm5HHKTxAk3fZj-66" edge="1">
          <mxGeometry relative="1" as="geometry">
            <mxPoint x="315" y="920" as="sourcePoint" />
            <mxPoint x="375" y="990" as="targetPoint" />
            <Array as="points" />
          </mxGeometry>
        </mxCell>
        <mxCell id="Ldey0VcRHfHmhugbh7vY-1" value="&lt;p style=&quot;margin: 0px ; margin-top: 4px ; text-align: center&quot;&gt;&amp;lt;&amp;lt;Block&amp;gt;&amp;gt;&lt;br&gt;&lt;b&gt;MapaAcciones&lt;/b&gt;&lt;/p&gt;&lt;hr&gt;&lt;p style=&quot;margin: 0px ; margin-left: 8px ; text-align: left&quot;&gt;+info() : String&lt;/p&gt;&lt;p style=&quot;margin: 0px ; margin-left: 8px ; text-align: left&quot;&gt;+status() : String&lt;/p&gt;&lt;p style=&quot;margin: 0px ; margin-left: 8px ; text-align: left&quot;&gt;+acciones() : MapaAcciones&lt;/p&gt;&lt;p style=&quot;margin: 0px ; margin-left: 8px ; text-align: left&quot;&gt;+actua(hability, value)&lt;/p&gt;&lt;p style=&quot;margin: 0px ; margin-left: 8px ; text-align: left&quot;&gt;+commit()&lt;/p&gt;" style="shape=rect;html=1;overflow=fill;whiteSpace=wrap;strokeWidth=3;fillColor=none;fontSize=14;" parent="1" vertex="1">
          <mxGeometry x="580" y="820" width="210" height="140" as="geometry" />
        </mxCell>
        <mxCell id="Ldey0VcRHfHmhugbh7vY-2" value="&lt;p style=&quot;margin:0px;margin-top:4px;text-align:center;&quot;&gt;&amp;lt;&amp;lt;block&amp;gt;&amp;gt;&lt;br&gt;&lt;b&gt;MapaAcciones&lt;/b&gt;&lt;/p&gt;&lt;br&gt;&lt;hr&gt;&lt;p style=&quot;font-size:10px;margin:0px;text-align:center;&quot;&gt;&lt;i&gt;values&lt;/i&gt;&lt;/p&gt;&lt;p style=&quot;margin:0px;margin-left:8px;text-align:left;&quot;&gt;{ accion : String= &quot;&quot;,&amp;nbsp;&lt;br&gt;&amp;nbsp; valor : String = &quot;&quot;&amp;nbsp; }&lt;/p&gt;&lt;hr&gt;&lt;p style=&quot;font-size:10px;margin:0px;text-align:center;&quot;&gt;&lt;i&gt;properties&lt;/i&gt;&lt;/p&gt;&lt;p style=&quot;margin:0px;margin-left:8px;text-align:left;&quot;&gt;abrir&lt;/p&gt;" style="shape=rect;html=1;overflow=fill;verticalAlign=top;align=left;whiteSpace=wrap;strokeWidth=2;" parent="1" vertex="1">
          <mxGeometry x="590" y="990" width="220" height="340" as="geometry" />
        </mxCell>
      </root>
    </mxGraphModel>
  </diagram>
  <diagram id="H_rwptr_GeWDjV9DAfLl" name="Mundo1">
    <mxGraphModel dx="794" dy="511" grid="1" gridSize="10" guides="1" tooltips="1" connect="1" arrows="1" fold="1" page="1" pageScale="1" pageWidth="1169" pageHeight="1654" math="0" shadow="0">
      <root>
        <mxCell id="0" />
        <mxCell id="1" parent="0" />
        <mxCell id="RL3CQAXzXzaFPsETKlkC-1" value="" style="rounded=0;whiteSpace=wrap;html=1;fillColor=#dae8fc;strokeColor=#6c8ebf;shadow=1;" parent="1" vertex="1">
          <mxGeometry x="150" y="80" width="160" height="100" as="geometry" />
        </mxCell>
        <mxCell id="RL3CQAXzXzaFPsETKlkC-2" value="hall" style="rounded=0;whiteSpace=wrap;html=1;fontFamily=Verdana;fontStyle=1" parent="1" vertex="1">
          <mxGeometry x="150" y="80" width="60" height="20" as="geometry" />
        </mxCell>
        <mxCell id="RL3CQAXzXzaFPsETKlkC-3" value="A: 0, 0, -30, -30" style="rounded=1;whiteSpace=wrap;html=1;fontFamily=Verdana;align=left;spacingLeft=3;fillColor=#d5e8d4;strokeColor=#82b366;" parent="1" vertex="1">
          <mxGeometry x="160" y="120" width="120" height="30" as="geometry" />
        </mxCell>
        <mxCell id="RL3CQAXzXzaFPsETKlkC-4" style="edgeStyle=orthogonalEdgeStyle;rounded=1;orthogonalLoop=1;jettySize=auto;html=1;entryX=0;entryY=0.5;entryDx=0;entryDy=0;strokeColor=#82b366;strokeWidth=3;align=center;verticalAlign=middle;fontFamily=Helvetica;fontSize=11;fontColor=default;labelBackgroundColor=default;endArrow=classic;curved=0;fillColor=#d5e8d4;" parent="1" source="RL3CQAXzXzaFPsETKlkC-5" target="RL3CQAXzXzaFPsETKlkC-8" edge="1">
          <mxGeometry relative="1" as="geometry" />
        </mxCell>
        <mxCell id="RL3CQAXzXzaFPsETKlkC-5" value="b&lt;div&gt;200, 200&lt;/div&gt;" style="shape=or;whiteSpace=wrap;html=1;align=left;spacingLeft=3;direction=east;fillColor=#d5e8d4;strokeColor=#82b366;" parent="1" vertex="1">
          <mxGeometry x="300" y="100" width="60" height="60" as="geometry" />
        </mxCell>
        <mxCell id="RL3CQAXzXzaFPsETKlkC-6" style="rounded=1;orthogonalLoop=1;jettySize=auto;html=1;entryX=0.75;entryY=0;entryDx=0;entryDy=0;edgeStyle=orthogonalEdgeStyle;curved=0;fillColor=#d5e8d4;strokeColor=#82b366;strokeWidth=3;" parent="1" source="RL3CQAXzXzaFPsETKlkC-7" target="RL3CQAXzXzaFPsETKlkC-12" edge="1">
          <mxGeometry relative="1" as="geometry" />
        </mxCell>
        <mxCell id="RL3CQAXzXzaFPsETKlkC-7" value="&lt;div&gt;a&lt;/div&gt;&lt;div&gt;20, 20&lt;/div&gt;" style="shape=or;whiteSpace=wrap;html=1;align=center;spacingLeft=3;direction=south;fillColor=#d5e8d4;strokeColor=#82b366;" parent="1" vertex="1">
          <mxGeometry x="162" y="160" width="65" height="35" as="geometry" />
        </mxCell>
        <mxCell id="RL3CQAXzXzaFPsETKlkC-8" value="" style="rounded=0;whiteSpace=wrap;html=1;fillColor=#ffe6cc;strokeColor=#d79b00;shadow=1;" parent="1" vertex="1">
          <mxGeometry x="400" y="80" width="160" height="100" as="geometry" />
        </mxCell>
        <mxCell id="RL3CQAXzXzaFPsETKlkC-9" value="dormitorio" style="rounded=0;whiteSpace=wrap;html=1;fontFamily=Verdana;fontStyle=1" parent="1" vertex="1">
          <mxGeometry x="400" y="80" width="90" height="20" as="geometry" />
        </mxCell>
        <mxCell id="RL3CQAXzXzaFPsETKlkC-10" value="A: 20, 30, 100, 100" style="rounded=1;whiteSpace=wrap;html=1;fontFamily=Verdana;align=left;spacingLeft=3;fillColor=#f8cecc;strokeColor=#b85450;" parent="1" vertex="1">
          <mxGeometry x="410" y="120" width="130" height="30" as="geometry" />
        </mxCell>
        <mxCell id="RL3CQAXzXzaFPsETKlkC-11" value="" style="rounded=0;whiteSpace=wrap;html=1;strokeWidth=2;fillColor=#fff2cc;strokeColor=#d6b656;glass=0;shadow=1;" parent="1" vertex="1">
          <mxGeometry x="165" y="260" width="130" height="290" as="geometry" />
        </mxCell>
        <mxCell id="RL3CQAXzXzaFPsETKlkC-12" value="pasillo" style="rounded=0;whiteSpace=wrap;html=1;fontFamily=Verdana;glass=0;shadow=0;fontStyle=1" parent="1" vertex="1">
          <mxGeometry x="165" y="260" width="60" height="20" as="geometry" />
        </mxCell>
        <mxCell id="RL3CQAXzXzaFPsETKlkC-13" style="edgeStyle=orthogonalEdgeStyle;rounded=1;orthogonalLoop=1;jettySize=auto;html=1;exitX=1;exitY=0.5;exitDx=0;exitDy=0;exitPerimeter=0;entryX=0;entryY=0.5;entryDx=0;entryDy=0;strokeColor=#666666;strokeWidth=2;align=center;verticalAlign=middle;fontFamily=Helvetica;fontSize=11;fontColor=default;labelBackgroundColor=default;endArrow=classic;curved=0;fillColor=#f5f5f5;" parent="1" source="RL3CQAXzXzaFPsETKlkC-14" target="RL3CQAXzXzaFPsETKlkC-19" edge="1">
          <mxGeometry relative="1" as="geometry" />
        </mxCell>
        <mxCell id="RL3CQAXzXzaFPsETKlkC-14" value="b&lt;div&gt;5, 5&lt;/div&gt;" style="shape=or;whiteSpace=wrap;html=1;align=left;spacingLeft=3;direction=east;fillColor=#f5f5f5;strokeColor=#666666;fontColor=#333333;" parent="1" vertex="1">
          <mxGeometry x="287" y="287.75" width="40" height="40" as="geometry" />
        </mxCell>
        <mxCell id="RL3CQAXzXzaFPsETKlkC-15" style="edgeStyle=orthogonalEdgeStyle;rounded=1;orthogonalLoop=1;jettySize=auto;html=1;exitX=1;exitY=0.5;exitDx=0;exitDy=0;exitPerimeter=0;entryX=0.008;entryY=0.376;entryDx=0;entryDy=0;entryPerimeter=0;strokeColor=#666666;strokeWidth=2;align=center;verticalAlign=middle;fontFamily=Helvetica;fontSize=11;fontColor=default;labelBackgroundColor=default;endArrow=classic;curved=0;fillColor=#f5f5f5;" parent="1" source="RL3CQAXzXzaFPsETKlkC-16" target="RL3CQAXzXzaFPsETKlkC-25" edge="1">
          <mxGeometry relative="1" as="geometry" />
        </mxCell>
        <mxCell id="RL3CQAXzXzaFPsETKlkC-16" value="&lt;div&gt;c&lt;/div&gt;&lt;div&gt;10, 15&lt;/div&gt;" style="shape=or;whiteSpace=wrap;html=1;align=left;spacingLeft=3;direction=east;fillColor=#f5f5f5;strokeColor=#666666;fontColor=#333333;" parent="1" vertex="1">
          <mxGeometry x="287" y="420.25" width="48" height="40" as="geometry" />
        </mxCell>
        <mxCell id="RL3CQAXzXzaFPsETKlkC-17" style="edgeStyle=orthogonalEdgeStyle;rounded=1;orthogonalLoop=1;jettySize=auto;html=1;exitX=1;exitY=0.5;exitDx=0;exitDy=0;exitPerimeter=0;entryX=0.75;entryY=1;entryDx=0;entryDy=0;strokeColor=#666666;strokeWidth=2;align=center;verticalAlign=middle;fontFamily=Helvetica;fontSize=11;fontColor=default;labelBackgroundColor=default;endArrow=classic;curved=0;fillColor=#f5f5f5;" parent="1" source="RL3CQAXzXzaFPsETKlkC-18" target="RL3CQAXzXzaFPsETKlkC-1" edge="1">
          <mxGeometry relative="1" as="geometry" />
        </mxCell>
        <mxCell id="RL3CQAXzXzaFPsETKlkC-18" value="&lt;div&gt;a&lt;/div&gt;&lt;div&gt;30, 40&lt;/div&gt;" style="shape=or;whiteSpace=wrap;html=1;align=center;spacingLeft=3;direction=north;fillColor=#d5e8d4;strokeColor=#82b366;" parent="1" vertex="1">
          <mxGeometry x="235" y="240" width="43" height="35" as="geometry" />
        </mxCell>
        <mxCell id="RL3CQAXzXzaFPsETKlkC-19" value="" style="rounded=0;whiteSpace=wrap;html=1;fillColor=#fff2cc;strokeColor=#d6b656;shadow=1;" parent="1" vertex="1">
          <mxGeometry x="400" y="259.5" width="160" height="130.5" as="geometry" />
        </mxCell>
        <mxCell id="RL3CQAXzXzaFPsETKlkC-20" value="sala" style="rounded=0;whiteSpace=wrap;html=1;fontFamily=Verdana;fontStyle=1" parent="1" vertex="1">
          <mxGeometry x="400" y="259.5" width="60" height="20" as="geometry" />
        </mxCell>
        <mxCell id="RL3CQAXzXzaFPsETKlkC-21" value="A: 5, 0, 2, 20" style="rounded=1;whiteSpace=wrap;html=1;fontFamily=Verdana;align=left;spacingLeft=3;fillColor=#f5f5f5;strokeColor=#666666;fontColor=#333333;" parent="1" vertex="1">
          <mxGeometry x="430" y="300" width="100" height="30" as="geometry" />
        </mxCell>
        <mxCell id="RL3CQAXzXzaFPsETKlkC-22" value="&lt;div&gt;a&lt;/div&gt;&lt;div&gt;10, 5&lt;/div&gt;" style="shape=or;whiteSpace=wrap;html=1;align=right;spacingLeft=3;direction=west;fillColor=#d5e8d4;strokeColor=#82b366;" parent="1" vertex="1">
          <mxGeometry x="370" y="335" width="40" height="35" as="geometry" />
        </mxCell>
        <mxCell id="RL3CQAXzXzaFPsETKlkC-23" style="edgeStyle=orthogonalEdgeStyle;rounded=1;orthogonalLoop=1;jettySize=auto;html=1;exitX=1;exitY=0.5;exitDx=0;exitDy=0;exitPerimeter=0;entryX=1;entryY=0.372;entryDx=0;entryDy=0;entryPerimeter=0;strokeColor=#82b366;strokeWidth=3;align=center;verticalAlign=middle;fontFamily=Helvetica;fontSize=11;fontColor=default;labelBackgroundColor=default;endArrow=classic;curved=0;fillColor=#d5e8d4;" parent="1" source="RL3CQAXzXzaFPsETKlkC-22" target="RL3CQAXzXzaFPsETKlkC-11" edge="1">
          <mxGeometry relative="1" as="geometry" />
        </mxCell>
        <mxCell id="RL3CQAXzXzaFPsETKlkC-24" value="B: 0, 5, 15, 15" style="rounded=1;whiteSpace=wrap;html=1;fontFamily=Verdana;align=left;spacingLeft=3;fillColor=#f5f5f5;strokeColor=#666666;fontColor=#333333;" parent="1" vertex="1">
          <mxGeometry x="430" y="330" width="100" height="30" as="geometry" />
        </mxCell>
        <mxCell id="RL3CQAXzXzaFPsETKlkC-25" value="" style="rounded=0;whiteSpace=wrap;html=1;fillColor=#fff2cc;strokeColor=#d6b656;" parent="1" vertex="1">
          <mxGeometry x="400" y="404.75" width="160" height="145.25" as="geometry" />
        </mxCell>
        <mxCell id="RL3CQAXzXzaFPsETKlkC-26" value="patio" style="rounded=0;whiteSpace=wrap;html=1;fontFamily=Verdana;fontStyle=1" parent="1" vertex="1">
          <mxGeometry x="400" y="404.75" width="60" height="20" as="geometry" />
        </mxCell>
        <mxCell id="RL3CQAXzXzaFPsETKlkC-27" value="A: 10, 0, 30, 0" style="rounded=1;whiteSpace=wrap;html=1;fontFamily=Verdana;align=left;spacingLeft=3;fillColor=#f5f5f5;strokeColor=#666666;fontColor=#333333;" parent="1" vertex="1">
          <mxGeometry x="430" y="445.25" width="110" height="30" as="geometry" />
        </mxCell>
        <mxCell id="RL3CQAXzXzaFPsETKlkC-28" value="&lt;div&gt;a&lt;/div&gt;&lt;div&gt;20, 20&lt;/div&gt;" style="shape=or;whiteSpace=wrap;html=1;align=right;spacingLeft=3;direction=west;fillColor=#d5e8d4;strokeColor=#82b366;" parent="1" vertex="1">
          <mxGeometry x="360" y="480.25" width="50" height="39.75" as="geometry" />
        </mxCell>
        <mxCell id="RL3CQAXzXzaFPsETKlkC-29" value="B:&amp;nbsp; 5,&amp;nbsp; 5, 5, 20" style="rounded=1;whiteSpace=wrap;html=1;fontFamily=Verdana;align=left;spacingLeft=3;fillColor=#d5e8d4;strokeColor=#82b366;" parent="1" vertex="1">
          <mxGeometry x="430" y="475.25" width="110" height="30" as="geometry" />
        </mxCell>
        <mxCell id="RL3CQAXzXzaFPsETKlkC-30" value="C: 0, 10, 20, 30" style="rounded=1;whiteSpace=wrap;html=1;fontFamily=Verdana;align=left;spacingLeft=3;fillColor=#f5f5f5;strokeColor=#666666;fontColor=#333333;" parent="1" vertex="1">
          <mxGeometry x="430" y="505.25" width="110" height="30" as="geometry" />
        </mxCell>
        <mxCell id="RL3CQAXzXzaFPsETKlkC-31" style="edgeStyle=orthogonalEdgeStyle;rounded=1;orthogonalLoop=1;jettySize=auto;html=1;exitX=1;exitY=0.5;exitDx=0;exitDy=0;exitPerimeter=0;entryX=0.996;entryY=0.869;entryDx=0;entryDy=0;entryPerimeter=0;strokeColor=#666666;strokeWidth=2;align=center;verticalAlign=middle;fontFamily=Helvetica;fontSize=11;fontColor=default;labelBackgroundColor=default;endArrow=classic;curved=0;fillColor=#f5f5f5;" parent="1" source="RL3CQAXzXzaFPsETKlkC-28" target="RL3CQAXzXzaFPsETKlkC-11" edge="1">
          <mxGeometry relative="1" as="geometry">
            <mxPoint x="345" y="497.75" as="sourcePoint" />
          </mxGeometry>
        </mxCell>
        <mxCell id="RL3CQAXzXzaFPsETKlkC-32" value="&lt;div&gt;b&lt;/div&gt;&lt;div&gt;10, 5&lt;/div&gt;" style="shape=or;whiteSpace=wrap;html=1;align=left;spacingLeft=3;direction=east;fillColor=#f5f5f5;strokeColor=#666666;fontColor=#333333;" parent="1" vertex="1">
          <mxGeometry x="550" y="435.25" width="50" height="44.75" as="geometry" />
        </mxCell>
        <mxCell id="RL3CQAXzXzaFPsETKlkC-33" value="" style="rounded=0;whiteSpace=wrap;html=1;fillColor=#fff2cc;strokeColor=#d6b656;shadow=1;" parent="1" vertex="1">
          <mxGeometry x="660" y="389.75" width="160" height="125.25" as="geometry" />
        </mxCell>
        <mxCell id="RL3CQAXzXzaFPsETKlkC-34" value="cocina" style="rounded=0;whiteSpace=wrap;html=1;fontFamily=Verdana;fontStyle=1" parent="1" vertex="1">
          <mxGeometry x="660" y="389.75" width="60" height="20" as="geometry" />
        </mxCell>
        <mxCell id="RL3CQAXzXzaFPsETKlkC-35" value="A: 20, 0, 30, 10" style="rounded=1;whiteSpace=wrap;html=1;fontFamily=Verdana;align=left;spacingLeft=3;fillColor=#f5f5f5;strokeColor=#666666;fontColor=#333333;" parent="1" vertex="1">
          <mxGeometry x="680" y="430.25" width="120" height="30" as="geometry" />
        </mxCell>
        <mxCell id="RL3CQAXzXzaFPsETKlkC-36" style="edgeStyle=orthogonalEdgeStyle;rounded=1;orthogonalLoop=1;jettySize=auto;html=1;exitX=1;exitY=0.5;exitDx=0;exitDy=0;exitPerimeter=0;entryX=1;entryY=0.5;entryDx=0;entryDy=0;strokeColor=#82b366;strokeWidth=3;align=center;verticalAlign=middle;fontFamily=Helvetica;fontSize=11;fontColor=default;labelBackgroundColor=default;endArrow=classic;curved=0;fillColor=#d5e8d4;" parent="1" source="RL3CQAXzXzaFPsETKlkC-37" target="RL3CQAXzXzaFPsETKlkC-19" edge="1">
          <mxGeometry relative="1" as="geometry" />
        </mxCell>
        <mxCell id="RL3CQAXzXzaFPsETKlkC-37" value="&lt;div&gt;a&lt;/div&gt;&lt;div&gt;20, 0&lt;/div&gt;" style="shape=or;whiteSpace=wrap;html=1;align=center;spacingLeft=3;direction=north;fillColor=#d5e8d4;strokeColor=#82b366;" parent="1" vertex="1">
          <mxGeometry x="750" y="365" width="45" height="40" as="geometry" />
        </mxCell>
        <mxCell id="RL3CQAXzXzaFPsETKlkC-38" value="B: 10, 10, 15, 20" style="rounded=1;whiteSpace=wrap;html=1;fontFamily=Verdana;align=left;spacingLeft=3;fillColor=#f5f5f5;strokeColor=#666666;fontColor=#333333;" parent="1" vertex="1">
          <mxGeometry x="680" y="460.25" width="120" height="30" as="geometry" />
        </mxCell>
        <mxCell id="RL3CQAXzXzaFPsETKlkC-39" style="edgeStyle=orthogonalEdgeStyle;rounded=1;orthogonalLoop=1;jettySize=auto;html=1;exitX=1;exitY=0.5;exitDx=0;exitDy=0;exitPerimeter=0;entryX=0;entryY=0.5;entryDx=0;entryDy=0;strokeColor=#666666;strokeWidth=2;align=center;verticalAlign=middle;fontFamily=Helvetica;fontSize=11;fontColor=default;labelBackgroundColor=default;endArrow=classic;curved=0;fillColor=#f5f5f5;" parent="1" source="RL3CQAXzXzaFPsETKlkC-32" target="RL3CQAXzXzaFPsETKlkC-33" edge="1">
          <mxGeometry relative="1" as="geometry" />
        </mxCell>
        <mxCell id="RL3CQAXzXzaFPsETKlkC-40" style="edgeStyle=orthogonalEdgeStyle;rounded=1;orthogonalLoop=1;jettySize=auto;html=1;exitX=1;exitY=0.5;exitDx=0;exitDy=0;exitPerimeter=0;entryX=1;entryY=0.5;entryDx=0;entryDy=0;curved=0;strokeWidth=2;fillColor=#f5f5f5;strokeColor=#666666;" parent="1" source="RL3CQAXzXzaFPsETKlkC-41" target="RL3CQAXzXzaFPsETKlkC-42" edge="1">
          <mxGeometry relative="1" as="geometry" />
        </mxCell>
        <mxCell id="RL3CQAXzXzaFPsETKlkC-41" value="&lt;div&gt;b&lt;/div&gt;&lt;div&gt;10, 0&lt;/div&gt;" style="shape=or;whiteSpace=wrap;html=1;align=left;spacingLeft=3;direction=east;fillColor=#f5f5f5;strokeColor=#666666;fontColor=#333333;" parent="1" vertex="1">
          <mxGeometry x="810" y="442.75" width="40" height="47.5" as="geometry" />
        </mxCell>
        <mxCell id="RL3CQAXzXzaFPsETKlkC-42" value="" style="rounded=0;whiteSpace=wrap;html=1;fillColor=#fff2cc;strokeColor=#d6b656;shadow=1;" parent="1" vertex="1">
          <mxGeometry x="660" y="540.25" width="160" height="104.75" as="geometry" />
        </mxCell>
        <mxCell id="RL3CQAXzXzaFPsETKlkC-43" value="sotano" style="rounded=0;whiteSpace=wrap;html=1;fontFamily=Verdana;fontStyle=1" parent="1" vertex="1">
          <mxGeometry x="660" y="540.25" width="60" height="20" as="geometry" />
        </mxCell>
        <mxCell id="RL3CQAXzXzaFPsETKlkC-44" value="A: 2, 2, 15, 15" style="rounded=1;whiteSpace=wrap;html=1;fontFamily=Verdana;align=left;spacingLeft=3;fillColor=#f5f5f5;strokeColor=#666666;fontColor=#333333;" parent="1" vertex="1">
          <mxGeometry x="680" y="580.75" width="110" height="30" as="geometry" />
        </mxCell>
        <mxCell id="RL3CQAXzXzaFPsETKlkC-45" style="edgeStyle=orthogonalEdgeStyle;rounded=1;orthogonalLoop=1;jettySize=auto;html=1;exitX=1;exitY=0.5;exitDx=0;exitDy=0;exitPerimeter=0;entryX=0.5;entryY=1;entryDx=0;entryDy=0;strokeColor=#82b366;strokeWidth=3;align=center;verticalAlign=middle;fontFamily=Helvetica;fontSize=11;fontColor=default;labelBackgroundColor=default;endArrow=classic;curved=0;fillColor=#d5e8d4;" parent="1" source="RL3CQAXzXzaFPsETKlkC-46" target="RL3CQAXzXzaFPsETKlkC-11" edge="1">
          <mxGeometry relative="1" as="geometry" />
        </mxCell>
        <mxCell id="RL3CQAXzXzaFPsETKlkC-46" value="&lt;div&gt;a&lt;/div&gt;&lt;div&gt;5, 0&lt;/div&gt;" style="shape=or;whiteSpace=wrap;html=1;align=center;spacingLeft=3;direction=west;fillColor=#d5e8d4;strokeColor=#82b366;" parent="1" vertex="1">
          <mxGeometry x="630" y="580.75" width="40" height="45" as="geometry" />
        </mxCell>
      </root>
    </mxGraphModel>
  </diagram>
  <diagram id="M8RDFyqGclwJttOnwCy-" name="distribucion">
    <mxGraphModel dx="2103" dy="601" grid="1" gridSize="10" guides="1" tooltips="1" connect="1" arrows="1" fold="1" page="1" pageScale="1" pageWidth="1169" pageHeight="1654" math="0" shadow="0">
      <root>
        <mxCell id="0" />
        <mxCell id="1" parent="0" />
        <mxCell id="zTLw3Q6XLsG2jc-uCD84-14" style="rounded=0;orthogonalLoop=1;jettySize=auto;html=1;exitX=0.25;exitY=1;exitDx=0;exitDy=0;entryX=0.5;entryY=0;entryDx=0;entryDy=0;" edge="1" parent="1" source="zTLw3Q6XLsG2jc-uCD84-1" target="zTLw3Q6XLsG2jc-uCD84-8">
          <mxGeometry relative="1" as="geometry" />
        </mxCell>
        <mxCell id="zTLw3Q6XLsG2jc-uCD84-16" style="rounded=0;orthogonalLoop=1;jettySize=auto;html=1;exitX=0.75;exitY=1;exitDx=0;exitDy=0;entryX=0.5;entryY=0;entryDx=0;entryDy=0;" edge="1" parent="1" source="zTLw3Q6XLsG2jc-uCD84-1" target="zTLw3Q6XLsG2jc-uCD84-15">
          <mxGeometry relative="1" as="geometry" />
        </mxCell>
        <mxCell id="zTLw3Q6XLsG2jc-uCD84-1" value="Terminal.java" style="rounded=0;whiteSpace=wrap;html=1;fontSize=16;fillColor=#e1d5e7;strokeColor=#9673a6;" vertex="1" parent="1">
          <mxGeometry x="250" y="130" width="120" height="60" as="geometry" />
        </mxCell>
        <mxCell id="zTLw3Q6XLsG2jc-uCD84-2" value="Actualmente, esta clase hace lanzador y de intérprete del cliente." style="shape=note;whiteSpace=wrap;html=1;backgroundOutline=1;darkOpacity=0.05;size=18;" vertex="1" parent="1">
          <mxGeometry x="360" y="40" width="100" height="100" as="geometry" />
        </mxCell>
        <mxCell id="zTLw3Q6XLsG2jc-uCD84-4" value="" style="shape=flexArrow;endArrow=classic;html=1;rounded=0;" edge="1" parent="1">
          <mxGeometry width="50" height="50" relative="1" as="geometry">
            <mxPoint x="310" y="200" as="sourcePoint" />
            <mxPoint x="310" y="240" as="targetPoint" />
          </mxGeometry>
        </mxCell>
        <mxCell id="zTLw3Q6XLsG2jc-uCD84-5" value="en la versión distribuida ..." style="text;html=1;align=center;verticalAlign=middle;whiteSpace=wrap;rounded=0;" vertex="1" parent="1">
          <mxGeometry x="370" y="190" width="170" height="30" as="geometry" />
        </mxCell>
        <mxCell id="zTLw3Q6XLsG2jc-uCD84-6" value="" style="endArrow=none;html=1;rounded=0;" edge="1" parent="1">
          <mxGeometry width="50" height="50" relative="1" as="geometry">
            <mxPoint x="320" y="470" as="sourcePoint" />
            <mxPoint x="320" y="260" as="targetPoint" />
          </mxGeometry>
        </mxCell>
        <mxCell id="zTLw3Q6XLsG2jc-uCD84-11" value="Crea..." style="edgeStyle=orthogonalEdgeStyle;rounded=0;orthogonalLoop=1;jettySize=auto;html=1;exitX=0.25;exitY=1;exitDx=0;exitDy=0;entryX=1;entryY=0.5;entryDx=0;entryDy=0;curved=1;" edge="1" parent="1" source="zTLw3Q6XLsG2jc-uCD84-8" target="zTLw3Q6XLsG2jc-uCD84-10">
          <mxGeometry x="0.1579" y="-10" relative="1" as="geometry">
            <mxPoint as="offset" />
          </mxGeometry>
        </mxCell>
        <mxCell id="zTLw3Q6XLsG2jc-uCD84-8" value="Cliente" style="rounded=0;whiteSpace=wrap;html=1;fontSize=15;fillColor=#fff2cc;strokeColor=#d6b656;" vertex="1" parent="1">
          <mxGeometry x="150" y="240" width="100" height="40" as="geometry" />
        </mxCell>
        <mxCell id="zTLw3Q6XLsG2jc-uCD84-9" value="Contiene la interfaz de Usuario." style="shape=note;whiteSpace=wrap;html=1;backgroundOutline=1;darkOpacity=0.05;size=21;" vertex="1" parent="1">
          <mxGeometry x="80" y="170" width="80" height="80" as="geometry" />
        </mxCell>
        <mxCell id="zTLw3Q6XLsG2jc-uCD84-10" value="callback" style="rounded=0;whiteSpace=wrap;html=1;fillColor=#d5e8d4;strokeColor=#82b366;" vertex="1" parent="1">
          <mxGeometry x="10" y="300" width="110" height="40" as="geometry" />
        </mxCell>
        <mxCell id="zTLw3Q6XLsG2jc-uCD84-12" value="Recibe los mensajes del servidor." style="shape=note;whiteSpace=wrap;html=1;backgroundOutline=1;darkOpacity=0.05;size=21;" vertex="1" parent="1">
          <mxGeometry x="-30" y="230" width="70" height="80" as="geometry" />
        </mxCell>
        <mxCell id="zTLw3Q6XLsG2jc-uCD84-13" value="&amp;lt;&amp;lt;Remote&amp;gt;&amp;gt;" style="text;html=1;align=center;verticalAlign=middle;whiteSpace=wrap;rounded=0;" vertex="1" parent="1">
          <mxGeometry x="50" y="280" width="80" height="30" as="geometry" />
        </mxCell>
        <mxCell id="zTLw3Q6XLsG2jc-uCD84-20" value="Crea" style="edgeStyle=orthogonalEdgeStyle;rounded=0;orthogonalLoop=1;jettySize=auto;html=1;exitX=0.75;exitY=1;exitDx=0;exitDy=0;entryX=0;entryY=0.5;entryDx=0;entryDy=0;curved=1;" edge="1" parent="1" source="zTLw3Q6XLsG2jc-uCD84-15" target="zTLw3Q6XLsG2jc-uCD84-17">
          <mxGeometry relative="1" as="geometry" />
        </mxCell>
        <mxCell id="zTLw3Q6XLsG2jc-uCD84-15" value="Lanzador&lt;div&gt;(Servidor)&lt;/div&gt;" style="rounded=0;whiteSpace=wrap;html=1;fillColor=#f8cecc;strokeColor=#b85450;" vertex="1" parent="1">
          <mxGeometry x="350" y="235" width="120" height="50" as="geometry" />
        </mxCell>
        <mxCell id="zTLw3Q6XLsG2jc-uCD84-17" value=": Juego" style="rounded=0;whiteSpace=wrap;html=1;fillColor=#d5e8d4;strokeColor=#82b366;" vertex="1" parent="1">
          <mxGeometry x="490" y="290" width="110" height="40" as="geometry" />
        </mxCell>
        <mxCell id="zTLw3Q6XLsG2jc-uCD84-18" value="&amp;lt;&amp;lt;Remote&amp;gt;&amp;gt;" style="text;html=1;align=center;verticalAlign=middle;whiteSpace=wrap;rounded=0;" vertex="1" parent="1">
          <mxGeometry x="500" y="270" width="80" height="30" as="geometry" />
        </mxCell>
        <mxCell id="zTLw3Q6XLsG2jc-uCD84-19" value="Equivalente a Juego centralizado.&lt;div&gt;Contiene el Mapa y&lt;div&gt;un método factoría de &quot;&lt;b&gt;Personaje&lt;/b&gt;&quot;&lt;/div&gt;&lt;/div&gt;" style="shape=note;whiteSpace=wrap;html=1;backgroundOutline=1;darkOpacity=0.05;size=21;" vertex="1" parent="1">
          <mxGeometry x="585" y="170" width="95" height="130" as="geometry" />
        </mxCell>
        <mxCell id="zTLw3Q6XLsG2jc-uCD84-21" value=": Personaje" style="rounded=0;whiteSpace=wrap;html=1;fillColor=#d5e8d4;strokeColor=#82b366;" vertex="1" parent="1">
          <mxGeometry x="600" y="370" width="110" height="40" as="geometry" />
        </mxCell>
        <mxCell id="zTLw3Q6XLsG2jc-uCD84-22" value="&amp;lt;&amp;lt;Remote&amp;gt;&amp;gt;" style="text;html=1;align=center;verticalAlign=middle;whiteSpace=wrap;rounded=0;" vertex="1" parent="1">
          <mxGeometry x="610" y="350" width="80" height="30" as="geometry" />
        </mxCell>
        <mxCell id="zTLw3Q6XLsG2jc-uCD84-23" value="Equivalente a Personaje Centralizado." style="shape=note;whiteSpace=wrap;html=1;backgroundOutline=1;darkOpacity=0.05;size=21;" vertex="1" parent="1">
          <mxGeometry x="695" y="280" width="90" height="100" as="geometry" />
        </mxCell>
        <mxCell id="zTLw3Q6XLsG2jc-uCD84-24" value="Crea" style="edgeStyle=orthogonalEdgeStyle;rounded=0;orthogonalLoop=1;jettySize=auto;html=1;exitX=0.5;exitY=1;exitDx=0;exitDy=0;entryX=0;entryY=0.25;entryDx=0;entryDy=0;curved=1;" edge="1" parent="1" source="zTLw3Q6XLsG2jc-uCD84-17" target="zTLw3Q6XLsG2jc-uCD84-21">
          <mxGeometry relative="1" as="geometry">
            <mxPoint x="534" y="370" as="sourcePoint" />
            <mxPoint x="584" y="395" as="targetPoint" />
          </mxGeometry>
        </mxCell>
        <mxCell id="zTLw3Q6XLsG2jc-uCD84-25" value="" style="endArrow=classic;html=1;rounded=0;entryX=0;entryY=0.5;entryDx=0;entryDy=0;exitX=0.5;exitY=1;exitDx=0;exitDy=0;edgeStyle=orthogonalEdgeStyle;curved=1;" edge="1" parent="1" source="zTLw3Q6XLsG2jc-uCD84-8" target="zTLw3Q6XLsG2jc-uCD84-21">
          <mxGeometry width="50" height="50" relative="1" as="geometry">
            <mxPoint x="420" y="280" as="sourcePoint" />
            <mxPoint x="470" y="230" as="targetPoint" />
          </mxGeometry>
        </mxCell>
        <mxCell id="zTLw3Q6XLsG2jc-uCD84-26" value="interactúa con Acciones" style="edgeLabel;html=1;align=center;verticalAlign=middle;resizable=0;points=[];" vertex="1" connectable="0" parent="zTLw3Q6XLsG2jc-uCD84-25">
          <mxGeometry x="0.0745" y="1" relative="1" as="geometry">
            <mxPoint x="6" y="-9" as="offset" />
          </mxGeometry>
        </mxCell>
        <mxCell id="zTLw3Q6XLsG2jc-uCD84-27" value="" style="endArrow=classic;html=1;rounded=0;entryX=0.5;entryY=1;entryDx=0;entryDy=0;exitX=0;exitY=0.75;exitDx=0;exitDy=0;edgeStyle=orthogonalEdgeStyle;curved=1;" edge="1" parent="1" source="zTLw3Q6XLsG2jc-uCD84-21" target="zTLw3Q6XLsG2jc-uCD84-10">
          <mxGeometry width="50" height="50" relative="1" as="geometry">
            <mxPoint x="591.25" y="400" as="sourcePoint" />
            <mxPoint x="28.75" y="340" as="targetPoint" />
          </mxGeometry>
        </mxCell>
        <mxCell id="zTLw3Q6XLsG2jc-uCD84-28" value="interactúa con Acciones" style="edgeLabel;html=1;align=center;verticalAlign=middle;resizable=0;points=[];" vertex="1" connectable="0" parent="zTLw3Q6XLsG2jc-uCD84-27">
          <mxGeometry x="0.0745" y="1" relative="1" as="geometry">
            <mxPoint as="offset" />
          </mxGeometry>
        </mxCell>
      </root>
    </mxGraphModel>
  </diagram>
</mxfile>
